<?xml version="1.0" encoding="utf-8"?>
<svg baseProfile="full" version="1.1" viewBox="0 0 4512 3782" xmlns="http://www.w3.org/2000/svg" xmlns:ev="http://www.w3.org/2001/xml-events" xmlns:xlink="http://www.w3.org/1999/xlink"><rect fill="#faf9fc" height="3152" width="3760" x="0" y="0"/><defs/><polygon fill="#800080" points="1900,1980"/><polygon fill="#800080" points="1400,1980 1404,1980"/><polygon fill="#800080" points="1368,1980"/><polygon fill="#800080" points="1876,1976 1880,1976 1884,1980 1880,1976"/><polygon fill="#800080" points="1392,1972 1384,1980"/><polygon fill="#800080" points="1404,1968"/><polygon fill="#800080" points="1896,1960"/><polygon fill="#800080" points="1404,1908 1404,1912"/><polygon fill="#800080" points="1252,1900"/><polygon fill="#800080" points="1400,1880 1400,1884"/><polygon fill="#800080" points="1880,1856 1876,1860"/><polygon fill="#800080" points="1868,1856"/><polygon fill="#800080" points="1816,1856 1812,1860 1804,1860 1800,1864 1796,1860 1788,1860 1788,1864 1784,1868 1780,1868 1776,1872 1772,1872 1764,1880 1768,1884 1764,1888 1768,1892 1760,1900 1760,1940 1768,1948 1768,1956 1764,1960 1768,1956 1772,1960 1772,1964 1776,1968 1776,1972 1780,1968 1784,1972 1788,1972 1792,1976 1796,1976 1800,1980 1852,1980 1856,1976 1860,1980 1864,1980 1868,1976 1868,1972 1872,1968 1876,1968 1876,1964 1884,1956 1884,1952 1888,1948 1888,1944 1892,1940 1892,1920 1896,1916 1900,1916 1900,1912 1896,1916 1892,1912 1892,1904 1888,1900 1888,1896 1884,1892 1884,1884 1876,1876 1876,1872 1872,1872 1868,1868 1868,1864 1864,1864 1860,1860 1856,1864 1852,1860 1840,1860 1836,1856"/><polygon fill="#800080" points="1780,1856 1776,1860 1772,1860 1776,1860"/><polygon fill="#800080" points="1344,1856 1340,1860 1308,1860 1304,1864 1300,1864 1296,1860 1296,1864 1288,1872 1288,1876 1284,1880 1280,1880 1272,1888 1272,1896 1268,1900 1264,1900 1268,1904 1264,1908 1264,1912 1268,1916 1264,1920 1264,1932 1268,1936 1268,1944 1272,1944 1276,1948 1276,1956 1280,1956 1292,1968 1292,1976 1296,1972 1300,1972 1308,1980 1352,1980 1360,1972 1376,1972 1380,1968 1380,1960 1392,1948 1388,1944 1392,1940 1396,1940 1396,1896 1392,1896 1388,1892 1392,1888 1388,1888 1384,1884 1388,1880 1388,1872 1392,1868 1396,1868 1392,1868 1388,1872 1376,1872 1372,1868 1372,1864 1376,1860 1372,1864 1368,1864 1364,1860 1360,1864 1356,1864 1352,1860 1356,1856"/><polygon fill="#800080" points="1280,1856"/><polygon fill="#800080" points="1856,1852"/><polygon fill="#800080" points="1720,1812 1720,1820 1724,1820 1720,1816"/><polygon fill="#800080" points="1740,1804 1736,1808 1740,1812 1744,1812 1744,1808"/><polygon fill="#800080" points="1060,1788"/><polygon fill="#800080" points="1928,1784 1928,1788"/><polygon fill="#800080" points="1936,1780 1936,1784"/><polygon fill="#800080" points="1940,1772"/><polygon fill="#800080" points="1752,1716 1752,1720"/><polygon fill="#800080" points="1756,1708"/><polygon fill="#800080" points="1748,1700"/><polygon fill="#800080" points="1204,1700"/><polygon fill="#800080" points="1792,1664"/><polygon fill="#800080" points="1208,1664 1208,1668"/><polygon fill="#800080" points="1192,1664 1192,1668 1196,1672 1196,1676 1196,1668"/><polygon fill="#800080" points="1980,1648"/><polygon fill="#800080" points="1816,1596"/><polygon fill="#800080" points="1804,1592 1800,1596 1804,1596"/><polygon fill="#800080" points="1032,1592 1036,1592"/><polygon fill="#800080" points="1796,1584 1796,1588"/><polygon fill="#800080" points="2000,1580 2000,1588 2004,1592 2004,1596 2004,1592 2000,1588"/><polygon fill="#800080" points="1820,1580"/><polygon fill="#800080" points="1812,1568 1812,1572"/><polygon fill="#800080" points="1024,1564"/><polygon fill="#800080" points="1832,1556"/><polygon fill="#800080" points="2012,1544 2012,1548"/><polygon fill="#800080" points="1828,1536 1824,1540"/><polygon fill="#800080" points="2012,1532"/><polygon fill="#800080" points="1028,1532 1032,1536"/><polygon fill="#800080" points="1856,1500 1856,1504"/><polygon fill="#800080" points="2036,1480"/><polygon fill="#800080" points="2040,1472"/><polygon fill="#800080" points="1856,1472"/><polygon fill="#800080" points="1032,1456 1032,1460"/><polygon fill="#800080" points="1172,1448"/><polygon fill="#800080" points="2044,1440"/><polygon fill="#800080" points="1028,1440"/><polygon fill="#800080" points="2056,1404"/><polygon fill="#800080" points="2064,1396 2064,1404 2068,1400 2068,1396"/><polygon fill="#800080" points="1892,1372"/><polygon fill="#800080" points="2076,1368 2076,1372"/><polygon fill="#800080" points="1884,1360"/><polygon fill="#800080" points="1880,1352 1884,1352"/><polygon fill="#800080" points="2096,1336 2096,1340 2100,1340"/><polygon fill="#800080" points="1904,1336 1904,1340"/><polygon fill="#800080" points="2080,1332 2080,1340 2084,1336"/><polygon fill="#800080" points="2104,1304 2104,1308"/><polygon fill="#800080" points="1928,1296"/><polygon fill="#800080" points="2100,1284 2100,1288"/><polygon fill="#800080" points="1916,1280 1916,1288"/><polygon fill="#800080" points="1928,1256 1928,1260 1932,1264 1928,1260"/><polygon fill="#800080" points="2108,1248 2108,1252"/><polygon fill="#800080" points="1940,1248 1944,1248"/><polygon fill="#800080" points="1932,1248"/><polygon fill="#800080" points="1924,1248"/><polygon fill="#800080" points="1024,1224"/><polygon fill="#800080" points="1900,1220 1892,1228 1888,1228 1884,1232 1880,1232 1876,1228 1868,1228 1864,1224 1860,1228 1056,1228 1052,1224 1048,1228 1044,1228 1040,1232 1032,1232 1028,1236 1024,1236 1024,1240 1020,1244 1020,1304 1024,1308 1024,1340 1028,1344 1028,1348 1024,1352 1028,1356 1028,1372 1032,1376 1032,1428 1036,1432 1036,1440 1040,1444 1040,1496 1044,1500 1044,1520 1048,1524 1048,1532 1044,1536 1040,1536 1044,1536 1048,1540 1048,1556 1052,1560 1052,1568 1056,1572 1056,1616 1060,1620 1060,1640 1064,1644 1064,1688 1068,1692 1068,1704 1072,1708 1072,1756 1076,1760 1076,1776 1080,1780 1080,1788 1084,1792 1084,1812 1088,1816 1088,1820 1092,1816 1096,1816 1100,1820 1104,1820 1108,1816 1112,1816 1116,1820 1120,1816 1144,1816 1148,1820 1704,1820 1708,1816 1712,1820 1708,1816 1712,1812 1712,1808 1716,1804 1716,1796 1720,1792 1716,1788 1720,1784 1720,1780 1724,1776 1724,1768 1728,1764 1728,1760 1732,1756 1732,1752 1736,1748 1736,1744 1744,1736 1744,1732 1740,1728 1744,1724 1744,1720 1740,1716 1740,1712 1744,1708 1740,1712 1736,1712 1728,1704 1724,1708 1192,1708 1188,1704 1188,1700 1192,1696 1188,1692 1188,1680 1184,1676 1184,1660 1180,1656 1180,1596 1176,1592 1180,1588 1176,1584 1180,1580 1188,1580 1192,1584 1188,1588 1200,1588 1196,1584 1200,1580 1788,1580 1804,1564 1804,1560 1808,1556 1804,1552 1804,1540 1808,1536 1808,1532 1812,1528 1816,1532 1816,1528 1812,1524 1812,1520 1820,1512 1820,1496 1828,1488 1828,1484 1820,1476 1820,1472 1720,1472 1716,1476 1708,1476 1704,1472 1700,1476 1176,1476 1172,1472 1168,1472 1164,1468 1164,1456 1160,1452 1160,1440 1156,1436 1156,1420 1152,1416 1152,1400 1148,1396 1148,1356 1144,1352 1152,1344 1888,1344 1884,1340 1888,1336 1888,1332 1892,1328 1892,1320 1896,1316 1896,1312 1900,1308 1900,1292 1904,1288 1904,1284 1908,1280 1908,1268 1920,1256 1916,1252 1916,1232 1912,1228 1904,1228 1900,1224"/><polygon fill="#800080" points="1924,1216 1928,1220 1932,1216"/><polygon fill="#800080" points="2136,1208 2140,1212"/><polygon fill="#800080" points="2156,1184 2160,1184"/><polygon fill="#800080" points="2168,1180 2172,1180"/><polygon fill="#800080" points="1960,1180 1960,1184"/><polygon fill="#800080" points="2284,1176 2288,1180 2288,1176"/><polygon fill="#800080" points="2276,1176"/><polygon fill="#800080" points="2292,1168"/><polygon fill="#800080" points="1960,1164"/><polygon fill="#800080" points="1968,1156 1968,1160"/><polygon fill="#800080" points="1956,1152"/><polygon fill="#800080" points="1984,1120"/><polygon fill="#800080" points="1988,1104 1988,1108"/><polygon fill="#800080" points="1992,1096"/><polygon fill="#800080" points="2296,1080"/><polygon fill="#800080" points="2000,1076 2000,1080"/><polygon fill="#800080" points="2288,1060"/><polygon fill="#800080" points="2276,1060"/><polygon fill="#800080" points="2000,1048 2000,1052 2004,1056 2000,1060 1996,1060 1992,1056 1988,1056 1992,1060 1988,1064 1988,1076 1988,1064 1992,1060 2004,1060 2004,1056 2000,1052"/><polygon fill="#800080" points="1988,1024 1992,1028 1996,1024"/><polygon fill="#800080" points="2188,1020"/><polygon fill="#800080" points="2016,1020"/><polygon fill="#800080" points="2200,1016"/><polygon fill="#800080" points="2188,1012"/><polygon fill="#800080" points="2428,1008"/><polygon fill="#800080" points="2452,980"/><polygon fill="#800080" points="2020,980 2020,988"/><polygon fill="#800080" points="2032,960"/><polygon fill="#800080" points="2020,960"/><polygon fill="#800080" points="2452,952 2452,956 2448,960 2448,964 2448,960 2452,956"/><polygon fill="#800080" points="2048,936"/><polygon fill="#800080" points="2460,916"/><polygon fill="#800080" points="2452,908 2452,912"/><polygon fill="#800080" points="2456,896 2456,900"/><polygon fill="#800080" points="2444,896 2444,900 2448,896"/><polygon fill="#800080" points="2056,896 2056,900 2060,900 2060,896"/><polygon fill="#800080" points="2424,884 2428,888 2424,892 2416,892 2412,888 2112,888 2108,892 2104,892 2100,888 2096,888 2092,892 2080,892 2076,896 2068,896 2072,900 2068,904 2068,908 2064,912 2064,916 2060,920 2056,916 2060,920 2052,928 2056,932 2056,940 2052,944 2052,952 2044,960 2044,972 2040,976 2036,972 2032,976 2032,1012 2028,1016 2028,1020 2024,1024 2024,1044 2012,1056 2016,1060 2008,1068 2008,1072 2012,1076 2008,1080 2008,1084 2004,1088 1996,1088 1992,1084 2000,1092 2000,1108 1992,1116 1992,1140 1984,1148 1984,1152 1980,1156 1976,1152 1980,1156 1980,1160 1976,1164 1976,1176 1968,1184 1968,1208 1960,1216 1960,1220 1956,1224 1960,1228 1960,1232 1952,1240 1952,1252 1944,1260 1944,1272 1940,1276 1936,1276 1932,1280 1928,1280 1932,1280 1936,1284 1936,1300 1932,1304 1932,1308 1928,1312 1924,1312 1924,1316 1928,1320 1928,1328 1924,1332 1920,1328 1920,1324 1920,1328 1924,1332 1924,1336 1920,1340 1920,1344 1916,1348 1916,1356 1912,1360 1912,1368 1908,1372 1904,1372 1900,1368 1900,1364 1900,1368 1904,1372 1904,1380 1900,1384 1900,1392 1896,1396 1896,1400 1900,1404 1892,1412 1888,1408 1888,1412 1896,1420 1896,1424 1888,1432 1888,1436 1884,1440 1884,1444 1880,1448 1880,1468 1876,1472 1872,1472 1868,1468 1864,1472 1864,1476 1864,1472 1868,1468 1876,1476 1872,1480 1872,1488 1868,1492 1864,1492 1864,1508 1860,1512 1860,1524 1856,1528 1856,1536 1852,1540 1852,1552 1844,1560 1844,1564 1840,1568 1840,1572 1836,1576 1836,1580 1840,1584 1840,1592 1828,1604 1824,1600 1824,1604 1832,1612 1824,1620 1824,1632 1816,1640 1816,1652 1812,1656 1812,1660 1808,1664 1804,1664 1808,1668 1808,1676 1804,1680 1800,1676 1800,1672 1800,1676 1804,1680 1804,1684 1800,1688 1800,1700 1796,1704 1796,1716 1792,1720 1792,1724 1788,1728 1788,1732 1784,1736 1784,1740 1780,1744 1780,1748 1776,1752 1772,1748 1772,1744 1772,1748 1776,1752 1776,1756 1772,1760 1768,1756 1764,1760 1768,1756 1776,1764 1776,1772 1768,1780 1768,1788 1760,1796 1756,1792 1748,1792 1748,1796 1756,1796 1764,1804 1760,1808 1760,1816 1764,1820 1768,1820 1772,1824 1788,1824 1792,1820 1856,1820 1860,1824 1864,1824 1868,1828 1872,1828 1876,1824 1884,1824 1888,1820 1900,1820 1904,1816 1908,1820 1916,1820 1916,1816 1912,1812 1912,1808 1916,1804 1916,1792 1920,1788 1920,1772 1932,1760 1932,1752 1936,1748 1936,1744 1940,1740 1940,1724 1944,1720 1948,1724 1940,1716 1940,1712 1948,1704 1948,1696 1952,1692 1952,1688 1956,1684 1956,1668 1964,1660 1968,1660 1972,1664 1976,1660 1980,1660 1976,1660 1972,1656 1972,1648 1972,1652 1968,1656 1964,1652 1964,1644 1972,1636 1976,1636 1972,1632 1976,1628 1976,1608 1980,1604 1980,1600 1984,1596 1984,1584 1996,1572 1996,1560 2000,1556 2004,1556 2004,1528 2008,1524 2008,1520 2012,1516 2012,1508 2016,1504 2016,1500 2020,1496 2024,1500 2028,1500 2024,1500 2020,1496 2020,1488 2024,1484 2024,1476 2028,1472 2028,1468 2032,1464 2028,1460 2028,1456 2032,1452 2032,1448 2036,1444 2036,1432 2040,1428 2040,1424 2044,1420 2044,1408 2048,1404 2048,1400 2052,1396 2052,1392 2056,1388 2056,1384 2060,1380 2060,1376 2064,1372 2068,1372 2064,1368 2064,1360 2068,1356 2064,1352 2068,1348 2068,1340 2072,1336 2072,1328 2076,1324 2076,1316 2080,1312 2080,1308 2084,1304 2088,1308 2088,1304 2084,1300 2084,1296 2088,1292 2088,1284 2092,1280 2092,1268 2096,1264 2096,1260 2100,1256 2100,1240 2108,1232 2108,1216 2116,1208 2116,1204 2120,1200 2124,1204 2124,1200 2120,1200 2116,1196 2124,1188 2132,1196 2140,1196 2136,1196 2132,1192 2128,1192 2124,1188 2124,1184 2128,1180 2124,1176 2128,1172 2148,1172 2152,1168 2156,1168 2160,1172 2164,1168 2176,1168 2180,1172 2268,1172 2276,1164 2284,1164 2288,1160 2288,1076 2284,1072 2276,1072 2268,1064 2176,1064 2172,1060 2172,1052 2168,1052 2164,1048 2172,1040 2172,1028 2176,1024 2176,1020 2180,1016 2180,1008 2184,1004 2196,1004 2200,1000 2204,1004 2416,1004 2420,1000 2428,1000 2440,988 2444,988 2440,988 2436,984 2436,980 2440,976 2440,948 2444,944 2444,928 2440,924 2440,916 2436,912 2436,896 2432,896 2428,892 2428,884"/><polygon fill="#800080" points="2428,876"/></svg>